<svg width="55" height="55" viewBox="0 0 55 55" fill="none" xmlns="http://www.w3.org/2000/svg">
<path d="M45.8335 9.16669H9.16683C6.646 9.16669 4.60641 11.2292 4.60641 13.75L4.5835 41.25C4.5835 43.7709 6.646 45.8334 9.16683 45.8334H45.8335C48.3543 45.8334 50.4168 43.7709 50.4168 41.25V13.75C50.4168 11.2292 48.3543 9.16669 45.8335 9.16669ZM44.9168 18.9063L28.7147 29.0354C27.9814 29.4938 27.0189 29.4938 26.2856 29.0354L10.0835 18.9063C9.8537 18.7773 9.65248 18.603 9.49199 18.394C9.3315 18.185 9.2151 17.9456 9.14981 17.6902C9.08453 17.4349 9.07173 17.169 9.11219 16.9086C9.15264 16.6482 9.24552 16.3988 9.38518 16.1753C9.52485 15.9518 9.70841 15.759 9.92474 15.6086C10.1411 15.4581 10.3857 15.3531 10.6438 15.2999C10.9019 15.2467 11.1681 15.2464 11.4263 15.2991C11.6845 15.3517 11.9293 15.4562 12.146 15.6063L27.5002 25.2084L42.8543 15.6063C43.071 15.4562 43.3158 15.3517 43.574 15.2991C43.8322 15.2464 44.0984 15.2467 44.3565 15.2999C44.6146 15.3531 44.8592 15.4581 45.0756 15.6086C45.2919 15.759 45.4755 15.9518 45.6151 16.1753C45.7548 16.3988 45.8477 16.6482 45.8881 16.9086C45.9286 17.169 45.9158 17.4349 45.8505 17.6902C45.7852 17.9456 45.6688 18.185 45.5083 18.394C45.3478 18.603 45.1466 18.7773 44.9168 18.9063Z" fill="white"/>
</svg>
