<svg width="55" height="55" viewBox="0 0 55 55" fill="none" xmlns="http://www.w3.org/2000/svg">
<path d="M27.5002 4.58331C24.4907 4.58331 21.5107 5.17607 18.7303 6.32774C15.95 7.47941 13.4236 9.16744 11.2956 11.2954C6.99792 15.5932 4.5835 21.4221 4.5835 27.5C4.5835 37.6291 11.1606 46.2229 20.2585 49.2708C21.4043 49.4541 21.771 48.7437 21.771 48.125V44.2521C15.4231 45.6271 14.071 41.1812 14.071 41.1812C13.0168 38.5229 11.5272 37.8125 11.5272 37.8125C9.44183 36.3916 11.6877 36.4375 11.6877 36.4375C13.9793 36.5979 15.1939 38.7979 15.1939 38.7979C17.1877 42.2812 20.5564 41.25 21.8627 40.7C22.0689 39.2104 22.6647 38.2021 23.3064 37.6291C18.2189 37.0562 12.8793 35.0854 12.8793 26.3541C12.8793 23.8104 13.7502 21.7708 15.2397 20.1437C15.0106 19.5708 14.2085 17.1875 15.4689 14.0937C15.4689 14.0937 17.3939 13.475 21.771 16.4312C23.5814 15.9271 25.5522 15.675 27.5002 15.675C29.4481 15.675 31.4189 15.9271 33.2293 16.4312C37.6064 13.475 39.5314 14.0937 39.5314 14.0937C40.7918 17.1875 39.9897 19.5708 39.7606 20.1437C41.2502 21.7708 42.121 23.8104 42.121 26.3541C42.121 35.1083 36.7585 37.0333 31.6481 37.6062C32.4731 38.3166 33.2293 39.7146 33.2293 41.8458V48.125C33.2293 48.7437 33.596 49.4771 34.7647 49.2708C43.8627 46.2 50.4168 37.6291 50.4168 27.5C50.4168 24.4905 49.8241 21.5105 48.6724 18.7301C47.5207 15.9498 45.8327 13.4235 43.7047 11.2954C41.5767 9.16744 39.0504 7.47941 36.27 6.32774C33.4896 5.17607 30.5096 4.58331 27.5002 4.58331Z" fill="white"/>
</svg>
