<svg width="55" height="55" viewBox="0 0 55 55" fill="none" xmlns="http://www.w3.org/2000/svg">
<path d="M36.6667 6.875C39.7056 6.875 42.6201 8.08221 44.7689 10.2311C46.9178 12.3799 48.125 15.2944 48.125 18.3333V36.6667C48.125 39.7056 46.9178 42.6201 44.7689 44.7689C42.6201 46.9178 39.7056 48.125 36.6667 48.125H18.3333C15.2944 48.125 12.3799 46.9178 10.2311 44.7689C8.08221 42.6201 6.875 39.7056 6.875 36.6667V18.3333C6.875 15.2944 8.08221 12.3799 10.2311 10.2311C12.3799 8.08221 15.2944 6.875 18.3333 6.875H36.6667ZM27.5 18.3333C25.0688 18.3333 22.7373 19.2991 21.0182 21.0182C19.2991 22.7373 18.3333 25.0688 18.3333 27.5C18.3333 29.9312 19.2991 32.2627 21.0182 33.9818C22.7373 35.7009 25.0688 36.6667 27.5 36.6667C29.9312 36.6667 32.2627 35.7009 33.9818 33.9818C35.7009 32.2627 36.6667 29.9312 36.6667 27.5C36.6667 25.0688 35.7009 22.7373 33.9818 21.0182C32.2627 19.2991 29.9312 18.3333 27.5 18.3333ZM27.5 22.9167C28.7156 22.9167 29.8814 23.3996 30.7409 24.2591C31.6004 25.1186 32.0833 26.2844 32.0833 27.5C32.0833 28.7156 31.6004 29.8814 30.7409 30.7409C29.8814 31.6004 28.7156 32.0833 27.5 32.0833C26.2844 32.0833 25.1186 31.6004 24.2591 30.7409C23.3996 29.8814 22.9167 28.7156 22.9167 27.5C22.9167 26.2844 23.3996 25.1186 24.2591 24.2591C25.1186 23.3996 26.2844 22.9167 27.5 22.9167ZM37.8125 14.8958C37.2047 14.8958 36.6218 15.1373 36.192 15.567C35.7623 15.9968 35.5208 16.5797 35.5208 17.1875C35.5208 17.7953 35.7623 18.3782 36.192 18.808C36.6218 19.2377 37.2047 19.4792 37.8125 19.4792C38.4203 19.4792 39.0032 19.2377 39.433 18.808C39.8627 18.3782 40.1042 17.7953 40.1042 17.1875C40.1042 16.5797 39.8627 15.9968 39.433 15.567C39.0032 15.1373 38.4203 14.8958 37.8125 14.8958Z" fill="white"/>
</svg>
