<svg width="55" height="55" viewBox="0 0 55 55" fill="none" xmlns="http://www.w3.org/2000/svg">
<path d="M27.5022 4.58331C40.159 4.58331 50.4188 14.8431 50.4188 27.5C50.4188 40.1569 40.159 50.4166 27.5022 50.4166C23.4522 50.4236 19.4735 49.3518 15.9751 47.3114L4.59465 50.4166L7.69298 39.0316C5.65101 35.5321 4.57839 31.5517 4.58548 27.5C4.58548 14.8431 14.8453 4.58331 27.5022 4.58331ZM19.6922 16.7291L19.2338 16.7475C18.9375 16.7679 18.6479 16.8457 18.3813 16.9766C18.1328 17.1176 17.9059 17.2936 17.7076 17.4991C17.4326 17.7581 17.2767 17.9827 17.1094 18.2004C16.2618 19.3025 15.8054 20.6555 15.8124 22.0458C15.8169 23.1687 16.1103 24.2619 16.5686 25.2839C17.5059 27.351 19.0482 29.5396 21.0832 31.5677C21.5736 32.0558 22.0549 32.5462 22.5728 33.0023C25.1015 35.2284 28.1147 36.8339 31.3728 37.691L32.6744 37.8904C33.0984 37.9133 33.5224 37.8812 33.9486 37.8606C34.6159 37.8254 35.2674 37.6447 35.8576 37.3312C36.1574 37.1762 36.4503 37.008 36.7353 36.8271C36.7353 36.8271 36.8323 36.7614 37.0217 36.6208C37.3311 36.3916 37.5213 36.2289 37.778 35.9608C37.9705 35.7622 38.1309 35.5315 38.2592 35.2687C38.438 34.8952 38.6167 34.1825 38.6901 33.5889C38.7451 33.1352 38.729 32.8877 38.7221 32.7341C38.713 32.4889 38.509 32.2346 38.2867 32.1269L36.953 31.5287C36.953 31.5287 34.9592 30.6602 33.7401 30.1056C33.6124 30.05 33.4758 30.0182 33.3367 30.0116C33.1799 29.9952 33.0214 30.0127 32.872 30.063C32.7225 30.1132 32.5856 30.1949 32.4705 30.3027C32.459 30.2981 32.3055 30.4287 30.6486 32.4362C30.5535 32.564 30.4225 32.6606 30.2723 32.7136C30.1221 32.7667 29.9595 32.7738 29.8053 32.7341C29.6559 32.6943 29.5096 32.6438 29.3676 32.5829C29.0834 32.4637 28.9849 32.4179 28.7901 32.3354C27.4744 31.7623 26.2565 30.9867 25.1807 30.0369C24.8919 29.7848 24.6238 29.5098 24.3488 29.2439C23.4473 28.3805 22.6616 27.4037 22.0113 26.3381L21.8761 26.1204C21.7805 25.9733 21.702 25.8156 21.6424 25.6506C21.5553 25.3137 21.7822 25.0433 21.7822 25.0433C21.7822 25.0433 22.339 24.4337 22.598 24.1037C22.8501 23.7829 23.0632 23.4712 23.2007 23.2489C23.4711 22.8135 23.5559 22.3666 23.4138 22.0206C22.7722 20.4531 22.1091 18.894 21.4247 17.3433C21.2894 17.0362 20.8884 16.8162 20.524 16.7727C20.4003 16.7574 20.2765 16.7452 20.1528 16.736C19.8451 16.7184 19.5365 16.7214 19.2292 16.7452L19.6922 16.7291Z" fill="white"/>
</svg>
