<svg width="25" height="25" viewBox="0 0 25 25" fill="none" xmlns="http://www.w3.org/2000/svg">
<g clip-path="url(#clip0_63_200)">
<path d="M19.1406 0H5.85938C2.62333 0 0 2.62333 0 5.85938V19.1406C0 22.3767 2.62333 25 5.85938 25H19.1406C22.3767 25 25 22.3767 25 19.1406V5.85938C25 2.62333 22.3767 0 19.1406 0Z" fill="white"/>
<path d="M22.2656 17.8649C21.9813 17.9726 21.6674 17.9724 21.3833 17.8644C21.0991 17.7563 20.8644 17.5479 20.7235 17.2785C19.8385 15.9536 18.8611 14.6885 17.9218 13.3962L17.5145 12.8532C16.3959 14.3518 15.2773 15.7907 14.2565 17.284C14.1236 17.5414 13.9016 17.7417 13.6319 17.8476C13.3621 17.9535 13.0631 17.9578 12.7905 17.8596L16.9878 12.2288L13.0837 7.1409C13.3647 7.03943 13.6722 7.03804 13.9541 7.13696C14.236 7.23588 14.4752 7.42905 14.6313 7.68387C15.538 9.00887 16.5426 10.274 17.5416 11.6152C18.5462 10.2848 19.5398 9.01424 20.4684 7.70017C20.602 7.44687 20.8242 7.25157 21.0925 7.15145C21.3608 7.05133 21.6566 7.05338 21.9235 7.15721L20.4086 9.16629C19.7299 10.0622 19.062 10.9636 18.3562 11.8378C18.2993 11.8887 18.2538 11.9511 18.2226 12.0208C18.1915 12.0905 18.1753 12.166 18.1753 12.2423C18.1753 12.3187 18.1915 12.3942 18.2226 12.4639C18.2538 12.5336 18.2993 12.5959 18.3562 12.6469C19.6539 14.3681 20.9407 16.0948 22.2656 17.8649ZM2.73438 12.1582C2.84844 11.6152 2.91895 11.0233 3.07646 10.4695C4.01582 7.13016 7.84385 5.74002 10.4773 7.80887C12.0194 9.0198 12.405 10.7356 12.329 12.6686H3.64121C3.5 16.1221 5.99229 18.2071 9.17959 17.1429C9.69664 16.9579 10.1595 16.6471 10.5264 16.2385C10.8932 15.8299 11.1526 15.3364 11.281 14.8025C11.4493 14.2596 11.7208 14.1673 12.2366 14.3247C12.1517 14.9857 11.9179 15.6189 11.553 16.1766C11.1881 16.7343 10.7016 17.202 10.1299 17.5446C9.18533 18.0612 8.10159 18.2659 7.03368 18.1294C5.96576 17.9929 4.96838 17.5221 4.18418 16.7845C3.40835 15.9121 2.93924 14.8099 2.84844 13.646C2.84844 13.4614 2.77783 13.2767 2.73984 13.103C2.73625 12.7881 2.73443 12.4731 2.73438 12.1582ZM3.65205 11.9247H11.5091C11.4602 9.42156 9.88008 7.64598 7.77334 7.62976C5.42764 7.59715 3.7498 9.33465 3.64658 11.9138L3.65205 11.9247Z" fill="black"/>
</g>
<defs>
<clipPath id="clip0_63_200">
<rect width="25" height="25" fill="white"/>
</clipPath>
</defs>
</svg>
