<svg width="25" height="25" viewBox="0 0 25 25" fill="none" xmlns="http://www.w3.org/2000/svg">
<path d="M4.16667 0C3.0616 0 2.00179 0.438987 1.22039 1.22039C0.438987 2.00179 0 3.0616 0 4.16667V20.8333C0 21.9384 0.438987 22.9982 1.22039 23.7796C2.00179 24.561 3.0616 25 4.16667 25H20.8333C21.9384 25 22.9982 24.561 23.7796 23.7796C24.561 22.9982 25 21.9384 25 20.8333V4.16667C25 3.0616 24.561 2.00179 23.7796 1.22039C22.9982 0.438987 21.9384 0 20.8333 0H4.16667ZM14.3528 18.1319C15.3528 18.9375 16.3509 19.3347 17.3472 19.3236C17.9583 19.3236 18.4269 19.2116 18.7528 18.9875C18.9045 18.889 19.028 18.7527 19.111 18.5919C19.1941 18.4312 19.2338 18.2516 19.2264 18.0708C19.2285 17.8737 19.1873 17.6784 19.1057 17.4989C19.0241 17.3194 18.9041 17.16 18.7542 17.0319C18.4282 16.7477 17.8116 16.4625 16.9042 16.1764C15.8144 15.8616 14.9741 15.4542 14.3833 14.9542C13.8037 14.4542 13.5083 13.7565 13.4972 12.8611C13.4972 12.0157 13.8639 11.3079 14.5972 10.7375C15.3102 10.1671 16.2222 9.88194 17.3333 9.88194C18.8815 9.88194 20.1236 10.2588 21.0597 11.0125L19.9903 12.6778C19.6052 12.3784 19.1634 12.1601 18.6917 12.0361C18.2677 11.8941 17.8248 11.8168 17.3778 11.8069C16.85 11.8069 16.4273 11.9037 16.1097 12.0972C15.7949 12.2917 15.6375 12.5463 15.6375 12.8611C15.6375 13.2074 15.8306 13.5028 16.2167 13.7472C16.6056 13.9824 17.2676 14.2421 18.2028 14.5264C19.3333 14.8625 20.138 15.3106 20.6167 15.8708C21.0954 16.431 21.3347 17.144 21.3347 18.0097C21.3347 18.8958 20.9935 19.6597 20.3111 20.3014C19.6389 20.9329 18.6611 21.2639 17.3778 21.2944C15.6972 21.2944 14.2917 20.7903 13.1611 19.7819L14.3528 18.1319ZM6.67222 19.0181C6.99815 19.2218 7.39028 19.3236 7.84861 19.3236C8.32731 19.3236 8.72454 19.1861 9.04028 18.9111C9.35509 18.6259 9.51296 18.1319 9.51389 17.4292V10.0653H11.5764V17.8264C11.5458 19.0282 11.1995 19.894 10.5375 20.4236C10.1752 20.7299 9.75409 20.9586 9.3 21.0958C8.87891 21.2241 8.44155 21.2909 8.00139 21.2944C7.2375 21.2944 6.56018 21.162 5.96944 20.8972C5.33796 20.613 4.80833 20.1088 4.38056 19.3847L5.81667 18.2083C6.08056 18.5648 6.36574 18.8347 6.67222 19.0181Z" fill="white"/>
</svg>
