<svg width="27" height="27" viewBox="0 0 27 27" fill="none" xmlns="http://www.w3.org/2000/svg">
<path d="M6.21873 11.4162C4.70873 11.9262 3.77498 12.6287 3.77498 13.4075C3.77498 14.4675 5.51123 15.3912 8.07498 15.87C7.12248 16.3525 6.55373 16.9637 6.55373 17.63C6.55373 19.1837 9.66248 20.4437 13.4975 20.4437C14.4287 20.4456 15.3584 20.3674 16.2762 20.21M8.07623 15.8712C9.40715 16.1088 10.7568 16.226 12.1087 16.2212C14.2437 16.2212 16.19 15.9512 17.665 15.505M19.0525 11.155C17.2887 11.6762 14.8287 12 12.1087 12C6.73998 12 2.38623 10.74 2.38623 9.18499C2.38623 7.98499 4.98248 6.95999 8.63623 6.55499" stroke="white" stroke-width="1.5" stroke-linecap="round" stroke-linejoin="round"/>
<path d="M26 22.3375C26 24.36 20.4037 26 13.5 26C6.59625 26 1 24.36 1 22.3375C1 20.9 3.13375 19.655 7.25 19.055M21.95 9.485C27.2175 8.1175 27.97 16.32 20.4438 19.055M20.4475 1C19.5225 1.15375 17.7812 2.01875 18.225 4.24125C18.67 6.4625 18.04 7.63625 17.67 7.945M14.8912 1C13.965 1.185 12.2238 2.2225 12.6688 4.88875C13.1138 7.555 12.4837 8.26875 12.1137 8.63875" stroke="white" stroke-width="1.5" stroke-linecap="round" stroke-linejoin="round"/>
</svg>
