<svg width="31" height="27" viewBox="0 0 31 27" fill="none" xmlns="http://www.w3.org/2000/svg">
<path d="M16.2617 24.6845C14.0834 23.3347 10.7816 19.6143 10.1558 16.7912C9.41389 17.8041 7.86452 19.4223 7.1028 19.4223C4.81461 18.2541 6.2266 14.1956 7.1028 11.529C4.66654 9.64379 3.33545 8.29536 3.2866 6.26678C-1.8271 1.7413 2.60885 -0.666154 7.1028 2.32014H8.62928C21.5769 2.97791 18.4308 12.9366 22.3676 17.4489C25.8709 18.1357 27.9621 20.4142 30 22.0534C26.8158 21.7902 25.7503 21.6008 24.6573 22.0534C25.387 24.2109 27.898 24.9476 30 26M10.1558 6.26678H10.171" stroke="white" stroke-width="2" stroke-linecap="round" stroke-linejoin="round"/>
</svg>
