<svg width="24" height="25" viewBox="0 0 24 25" fill="none" xmlns="http://www.w3.org/2000/svg">
<path d="M23.9749 15.3363C23.9608 15.2921 23.941 15.2501 23.9158 15.2113C23.7708 14.9369 23.4231 14.8567 22.8727 14.9706C21.1594 15.3248 20.4964 15.106 20.2561 14.9498C21.6462 12.8164 22.7888 10.2393 23.4062 7.83506C23.6879 6.74129 24.2328 4.1652 23.5326 2.90788C23.488 2.82154 23.436 2.73927 23.3772 2.66205C22.0409 0.947429 20.08 0.0255358 17.7079 0.000535263C16.1592 -0.0161317 14.8385 0.360959 14.4801 0.499503C14.3027 0.466354 14.1245 0.437872 13.9456 0.414085C13.497 0.332467 13.0424 0.288219 12.5865 0.281791C11.3621 0.261999 10.3045 0.556796 9.42714 1.15681C8.54043 0.822426 4.46843 -0.556767 1.94816 1.2391C0.538347 2.24225 -0.110106 4.03395 0.0152337 6.56629C0.0577043 7.41839 0.540419 10.0393 1.30282 12.5497C1.77932 14.1192 2.27412 15.363 2.78722 16.2811C3.3604 17.3179 3.95223 17.9394 4.5627 18.1457C5.02677 18.2999 5.73634 18.2946 6.48734 17.3863C7.13881 16.6027 7.81063 15.8365 8.50211 15.0883C8.95271 15.3331 9.4406 15.4654 9.94196 15.481V15.4852C9.8548 15.5896 9.7695 15.6955 9.6861 15.8029C9.33494 16.2509 9.2614 16.3446 8.1323 16.579C7.81118 16.6457 6.95763 16.8217 6.94519 17.4238C6.94336 17.5441 6.97609 17.6624 7.03946 17.7644C7.2746 18.2051 7.99453 18.3999 8.09087 18.4238C9.47375 18.7707 10.6857 18.5196 11.5838 17.7165C11.5662 20.0405 11.6636 22.3187 11.9412 23.0166C12.1701 23.5927 12.7305 25 14.4998 25C14.7588 25.0007 15.045 24.968 15.3585 24.9021C17.2044 24.5041 18.0062 23.6833 18.3159 21.8749C18.4713 20.9687 18.7323 18.8801 18.8743 17.603C18.8919 17.53 18.9115 17.478 18.9333 17.4613C18.9333 17.4613 19.0058 17.4113 19.3756 17.4925L19.4212 17.4998L19.6843 17.5228L19.6998 17.5238C20.5772 17.5644 21.6794 17.3759 22.3216 17.0759C22.9887 16.7634 24.1934 15.9998 23.9749 15.3363ZM2.02482 12.3706C1.25413 9.83406 0.804566 7.28193 0.769346 6.56733C0.656436 4.30479 1.2013 2.7308 2.38737 1.88703C4.29026 0.533879 7.40098 1.32452 8.71446 1.75161L8.7041 1.76203C6.60854 3.88915 6.65826 7.52673 6.66551 7.74965C6.66551 7.83506 6.67173 7.95694 6.68208 8.12465C6.7173 8.73508 6.78567 9.87469 6.60543 11.1643C6.43969 12.3622 6.80639 13.5352 7.61333 14.3821C7.6962 14.4696 7.78321 14.5519 7.87437 14.6289C7.51492 15.0154 6.73491 15.8717 5.90311 16.8769C5.31474 17.5873 4.90868 17.4509 4.77609 17.4061C4.37003 17.2707 3.93392 16.7946 3.49264 16.029C2.99543 15.155 2.4951 13.9123 2.02689 12.3706M8.24935 17.6707C8.09197 17.6312 7.9412 17.5687 7.80186 17.4853C7.89405 17.4446 8.04736 17.3915 8.30218 17.3394C9.63224 17.0634 9.83734 16.8696 10.2859 16.2977C10.4071 16.1394 10.5339 15.9855 10.666 15.8363C10.6998 15.7964 10.7258 15.7504 10.7427 15.7008C10.9188 15.5436 11.0244 15.5863 11.1943 15.6571C11.3559 15.7248 11.5134 15.9279 11.5776 16.1519C11.6087 16.2581 11.6418 16.4592 11.531 16.6154C10.5946 17.9342 9.22929 17.9176 8.24935 17.6707ZM10.4185 13.5164L10.3646 13.6623C10.2268 14.0341 10.0984 14.38 10.0186 14.7081C9.32769 14.706 8.65438 14.4081 8.1437 13.8716C7.49317 13.1893 7.19795 12.2404 7.33261 11.2674C7.52217 9.9049 7.45277 8.71842 7.41548 8.0809L7.40201 7.85173C7.70863 7.57881 9.12777 6.81421 10.1398 7.04755C10.6018 7.1538 10.8836 7.47047 10.9996 8.01423C11.6056 10.831 11.0804 12.0039 10.6577 12.9477C10.5721 13.1346 10.4927 13.3243 10.4195 13.5164M18.0476 18.279C18.0311 18.4637 18.0097 18.6707 17.9834 18.8999L17.8322 19.3561C17.8209 19.3926 17.8146 19.4304 17.8135 19.4686C17.8073 19.9634 17.7576 20.1447 17.6944 20.3749C17.5916 20.7338 17.529 21.1031 17.5079 21.476C17.394 22.9489 16.5985 23.7958 15.0043 24.1385C13.4349 24.4771 13.1563 23.6218 12.9118 22.8666C12.8862 22.7873 12.8593 22.7085 12.831 22.6301C12.6083 22.0197 12.6342 21.1593 12.6684 19.9686C12.6849 19.3843 12.6425 17.9884 12.3265 17.2123C12.3307 16.9068 12.3372 16.597 12.3462 16.2831C12.3463 16.2433 12.3407 16.2037 12.3296 16.1654C12.3183 16.0925 12.3031 16.0201 12.2841 15.9488C12.1577 15.5029 11.849 15.13 11.4761 14.9748C11.329 14.9133 11.0586 14.8008 10.7334 14.8842C10.8028 14.5967 10.9229 14.2727 11.0535 13.9206L11.1084 13.7727C11.1705 13.606 11.2472 13.4341 11.329 13.2518C11.7703 12.2643 12.3752 10.9122 11.7185 7.85798C11.473 6.71421 10.6515 6.15586 9.40642 6.28503C8.66059 6.36316 7.97692 6.66629 7.63612 6.83921C7.56778 6.87406 7.5001 6.91018 7.43309 6.94755C7.52839 5.79544 7.88784 3.64123 9.23136 2.27871C9.33103 2.17754 9.43579 2.08158 9.54523 1.9912C9.5997 1.98082 9.65109 1.95801 9.69543 1.92453C10.4744 1.33077 11.4512 1.0391 12.5979 1.05681C13.0233 1.06375 13.4287 1.09188 13.814 1.14118C15.8236 1.51098 17.1744 2.6485 17.9948 3.62352C18.838 4.62563 19.2948 5.63502 19.4771 6.17982C18.1067 6.04024 17.1744 6.31212 16.701 6.99234C15.6734 8.46945 17.2645 11.3383 18.029 12.7175C18.1688 12.9695 18.29 13.1883 18.3284 13.28C18.577 13.8873 18.8991 14.2925 19.1343 14.5883C19.2068 14.679 19.2772 14.7665 19.33 14.8435C18.9157 14.9644 18.1699 15.2425 18.2372 16.6321C18.2115 16.9154 18.1825 17.1984 18.1502 17.4811C18.1025 17.6978 18.0787 17.9603 18.0476 18.279ZM18.9685 16.5904C18.9271 15.7238 19.2482 15.6331 19.5869 15.5383L19.7268 15.4956C19.77 15.5353 19.8164 15.5712 19.8656 15.6029C20.456 15.9946 21.5054 16.0415 22.9804 15.7425C22.7712 15.9269 22.4428 16.1592 21.9933 16.3686C21.5686 16.5665 20.8579 16.7154 20.1836 16.7477C19.4378 16.7832 19.0586 16.6644 18.9685 16.5904ZM19.559 6.93296C19.5476 7.28271 19.5113 7.63119 19.4502 7.97569C19.3932 8.34862 19.3342 8.73404 19.3186 9.20176C19.3041 9.65593 19.3601 10.1289 19.415 10.5872C19.5258 11.5112 19.6387 12.4622 19.2006 13.4008C19.1286 13.2707 19.0636 13.1368 19.0058 12.9998C18.9029 12.7807 18.7906 12.5662 18.6692 12.357C18.0311 11.207 16.5384 8.5132 17.3018 7.41526C17.6954 6.84963 18.6919 6.82567 19.559 6.93296ZM19.7951 14.2383L19.7071 14.1269L19.6708 14.081C20.4229 12.831 20.2758 11.5945 20.1442 10.4987C20.0904 10.0487 20.0406 9.62364 20.0531 9.22572C20.0665 8.80175 20.1214 8.43924 20.1753 8.08819C20.2416 7.65589 20.31 7.20901 20.2903 6.68192C20.3049 6.61703 20.3091 6.55021 20.3027 6.484C20.2551 5.97774 19.6812 4.46521 18.5107 3.09539C17.7478 2.19121 16.7975 1.46589 15.7263 0.970346C16.4156 0.829003 17.1184 0.76403 17.8218 0.776592C19.9474 0.82451 21.6286 1.62453 22.8188 3.15476C22.844 3.18805 22.8672 3.22284 22.8882 3.25893C23.6372 4.67146 22.6034 9.79552 19.7951 14.2383ZM10.6619 7.86736C10.636 8.05486 10.3408 8.30799 10.0186 8.30799L9.93471 8.30174C9.72449 8.26434 9.53673 8.1468 9.41056 7.97361C9.36291 7.91111 9.28626 7.78819 9.30076 7.67673C9.30536 7.64559 9.31628 7.61574 9.33286 7.58904C9.34943 7.56233 9.3713 7.53935 9.3971 7.52152C9.51933 7.42881 9.76172 7.39443 10.029 7.43193C10.3563 7.47777 10.694 7.63298 10.6609 7.86736M18.8753 7.43922C18.8867 7.52256 18.8245 7.64756 18.7168 7.76215C18.6054 7.88445 18.4567 7.96615 18.2942 7.99444L18.2165 7.99965C17.913 7.99965 17.6561 7.7559 17.6364 7.61319C17.6115 7.42881 17.9099 7.29026 18.2165 7.24651C18.5252 7.20276 18.8504 7.25589 18.8753 7.43922Z" fill="white"/>
</svg>
