<svg width="27" height="25" viewBox="0 0 27 25" fill="none" xmlns="http://www.w3.org/2000/svg">
<path d="M13.5006 14.5005C12.9891 14.5005 12.4986 14.2897 12.1369 13.9144C11.7752 13.5391 11.572 13.0302 11.572 12.4994C11.572 11.9687 11.7752 11.4597 12.1369 11.0845C12.4986 10.7092 12.9891 10.4983 13.5006 10.4983C14.0122 10.4983 14.5027 10.7092 14.8644 11.0845C15.2261 11.4597 15.4293 11.9687 15.4293 12.4994C15.4293 13.0302 15.2261 13.5391 14.8644 13.9144C14.5027 14.2897 14.0122 14.5005 13.5006 14.5005ZM12.8218 18.4947C13.0463 18.7758 13.2726 19.0466 13.5006 19.3072C13.7287 19.0475 13.9549 18.7766 14.1795 18.4947C13.727 18.5046 13.2743 18.5046 12.8218 18.4947ZM10.2566 18.328C9.26937 18.2209 8.28855 18.0575 7.31863 17.8384C7.22177 18.3053 7.14891 18.7566 7.10005 19.1924C6.85575 21.3043 7.19649 22.5876 7.71465 22.8971C8.23282 23.2066 9.47359 22.8718 11.1155 21.5977C11.4541 21.3345 11.7944 21.0432 12.1364 20.7239C11.4678 19.9618 10.8403 19.1619 10.2566 18.328ZM19.6826 17.8384C18.7127 18.0575 17.7319 18.2209 16.7447 18.328C16.161 19.1619 15.5334 19.9618 14.8648 20.7239C15.2077 21.0441 15.548 21.3354 15.8858 21.5977C17.5277 22.8718 18.7685 23.208 19.2866 22.8971C19.8048 22.5876 20.1442 21.3043 19.9025 19.1924C19.8501 18.7378 19.7758 18.2859 19.6826 17.8384ZM21.5483 17.3207C22.2902 20.8413 21.9006 23.6442 20.2522 24.6314C18.6039 25.6186 16.0696 24.5674 13.5019 22.1407C10.9342 24.5674 8.39997 25.6173 6.75161 24.6301C5.10324 23.6429 4.71365 20.8413 5.45426 17.3194C2.14339 16.2268 0 14.4739 0 12.4994C0 10.525 2.14339 8.7734 5.45297 7.67947C4.71237 4.15754 5.10196 1.35601 6.75032 0.368804C8.39869 -0.618403 10.9329 0.431504 13.5006 2.85817C16.0683 0.431504 18.6026 -0.618403 20.251 0.368804C21.8993 1.35601 22.2889 4.15754 21.5483 7.67947C24.8566 8.7734 27 10.525 27 12.4994C27 14.4739 24.8566 16.2268 21.5483 17.3207ZM12.1351 4.27494C11.794 3.95565 11.4541 3.66438 11.1155 3.40113C9.47359 2.1271 8.23282 1.79091 7.71337 2.10175C7.1952 2.41125 6.85575 3.69462 7.09748 5.80778C7.14891 6.24357 7.22177 6.69493 7.31606 7.16185C8.28638 6.94225 9.26763 6.77835 10.2553 6.67092C10.8674 5.79844 11.494 4.99978 12.1351 4.27494ZM16.7447 6.67092C17.7319 6.7784 18.7128 6.9423 19.6826 7.16185C19.7795 6.69404 19.8524 6.24268 19.9012 5.80778C20.1455 3.69462 19.8048 2.41125 19.2866 2.10175C18.7685 1.79225 17.5277 2.1271 15.8858 3.40113C15.5472 3.66438 15.2069 3.95565 14.8648 4.27494C15.506 4.99978 16.1326 5.79844 16.7447 6.67092ZM14.1795 6.50416C13.9549 6.22312 13.7287 5.9523 13.5006 5.69172C13.2735 5.9523 13.0472 6.22312 12.8218 6.50416C13.2743 6.49424 13.727 6.49424 14.1795 6.50416ZM8.83585 16.1067C8.60131 15.7053 8.37496 15.2988 8.15696 14.8874C8.03438 15.2298 7.92166 15.5687 7.8188 15.904C8.14967 15.9778 8.48826 16.0454 8.83456 16.1067M11.3187 16.4189C12.7705 16.5303 14.2282 16.5303 15.68 16.4189C16.4994 15.1699 17.2287 13.8599 17.862 12.4994C17.2291 11.139 16.5002 9.82898 15.6813 8.57996C14.2295 8.46858 12.7718 8.46858 11.32 8.57996C10.5011 9.82898 9.7722 11.139 9.13929 12.4994C9.7722 13.8598 10.5011 15.1699 11.32 16.4189M18.8443 10.1115C18.9669 9.76906 19.0796 9.43065 19.1825 9.09624C18.8454 9.02036 18.5067 8.95231 18.1667 8.89213C18.4008 9.29359 18.6267 9.70012 18.8443 10.1115ZM5.95314 9.61386C5.51598 9.76061 5.10281 9.92069 4.71365 10.0941C2.82999 10.9319 1.92866 11.8791 1.92866 12.4994C1.92866 13.1198 2.82871 14.067 4.71365 14.9048C5.10281 15.0782 5.51598 15.2383 5.95314 15.385C6.23858 14.4512 6.59217 13.4826 7.01391 12.4994C6.60945 11.5585 6.25532 10.5952 5.95314 9.61386ZM7.81751 9.09624C7.92123 9.42976 8.03438 9.76772 8.15696 10.1101C8.37498 9.69922 8.60132 9.29313 8.83585 8.89213C8.48869 8.9535 8.14839 9.02154 7.81751 9.09624ZM21.0494 15.385C21.4866 15.2383 21.8998 15.0782 22.2889 14.9048C24.1713 14.067 25.0713 13.1198 25.0713 12.4994C25.0713 11.8791 24.1713 10.9319 22.2863 10.0941C21.8972 9.92069 21.4836 9.76061 21.0456 9.61386C20.7627 10.5477 20.4078 11.5162 19.9861 12.4994C20.4078 13.4826 20.7614 14.4512 21.0469 15.385M19.1825 15.904C19.0779 15.5687 18.9648 15.2298 18.843 14.8874C18.625 15.2988 18.3987 15.7053 18.1641 16.1067C18.5113 16.0445 18.8516 15.9769 19.1825 15.904Z" fill="white"/>
</svg>
