<svg width="25" height="25" viewBox="0 0 25 25" fill="none" xmlns="http://www.w3.org/2000/svg">
<path d="M22.6936 18.0001C19.6158 22.1054 13.044 20.72 8.82936 20.9184C8.82936 20.9184 8.08268 20.9609 7.33225 21.0844C7.33225 21.0844 7.61646 20.9634 7.97921 20.8373C10.9385 19.8125 12.3372 19.6066 14.136 18.6817C17.5141 16.9492 20.8773 13.1734 21.5617 9.25158C20.2752 13.0236 16.3636 16.2702 12.8021 17.5882C10.3651 18.4894 5.95605 19.3657 5.9548 19.3657L5.77655 19.2708C2.77858 17.8104 2.69132 11.3074 8.13752 9.21164C10.5259 8.29297 12.8084 8.79724 15.39 8.18188C18.1424 7.52659 21.3311 5.46083 22.6263 2.75975C24.0785 7.07599 25.8237 13.8262 22.6936 18.0001ZM22.7459 1.42419C22.3979 2.26022 21.9522 3.05208 21.4183 3.78326C20.2581 2.58569 18.8694 1.63371 17.3347 0.983821C15.8 0.333929 14.1506 -0.000630033 12.4843 8.90701e-07C5.59954 8.90701e-07 2.23755e-06 5.60687 2.23755e-06 12.4994C-0.00102755 14.2187 0.353404 15.9196 1.04099 17.4951C1.72857 19.0705 2.73442 20.4864 3.99522 21.6536L4.26946 21.8957C4.06957 21.6953 3.95737 21.4235 3.95755 21.1402C3.95773 20.8569 4.07025 20.5853 4.27039 20.385C4.47053 20.1848 4.7419 20.0724 5.02482 20.0724C5.30775 20.0725 5.57907 20.185 5.77912 20.3854C5.97918 20.5857 6.0916 20.8573 6.09165 21.1406C6.09171 21.4239 5.97941 21.6957 5.77943 21.8961C5.57946 22.0965 5.30819 22.2091 5.02526 22.2093C4.74234 22.2095 4.47093 22.0971 4.27071 21.897L4.45644 22.0618C6.70075 23.9617 9.54537 25.0028 12.4843 25C19.0636 25 24.4674 19.8724 24.9299 13.4018C25.2714 10.2327 24.3365 6.2085 22.7459 1.42419Z" fill="white"/>
</svg>
