<svg width="30" height="25" viewBox="0 0 30 25" fill="none" xmlns="http://www.w3.org/2000/svg">
<path d="M25.9615 0H4.03846C1.81154 0 0 1.78409 0 3.97727V21.0227C0 23.2159 1.81154 25 4.03846 25H25.9615C28.1885 25 30 23.2159 30 21.0227V3.97727C30 1.78409 28.1885 0 25.9615 0ZM14.6631 8.75909C14.5557 8.86455 14.4283 8.94814 14.2881 9.00507C14.148 9.06201 13.9978 9.09118 13.8462 9.09091H11.5385V17.0455C11.5385 17.3468 11.4169 17.6359 11.2005 17.849C10.9841 18.0621 10.6906 18.1818 10.3846 18.1818C10.0786 18.1818 9.78511 18.0621 9.56872 17.849C9.35233 17.6359 9.23077 17.3468 9.23077 17.0455V9.09091H6.92308C6.61706 9.09091 6.32357 8.97118 6.10718 8.75808C5.8908 8.54497 5.76923 8.25593 5.76923 7.95455C5.76923 7.65316 5.8908 7.36412 6.10718 7.15102C6.32357 6.93791 6.61706 6.81818 6.92308 6.81818H13.8462C14.0747 6.81778 14.2981 6.88421 14.4883 7.00904C14.6784 7.13388 14.8266 7.31151 14.9141 7.5194C15.0016 7.72729 15.0245 7.9561 14.9798 8.1768C14.9351 8.3975 14.8249 8.60016 14.6631 8.75909ZM20.4808 9.37955C20.2966 9.1993 20.0481 9.09731 19.7885 9.09545H19.4515C19.2772 9.09656 19.1062 9.14321 18.9562 9.23065C18.8061 9.31809 18.6823 9.44318 18.5973 9.59315C18.5124 9.74313 18.4694 9.91261 18.4727 10.0843C18.476 10.256 18.5255 10.4238 18.6162 10.5705C18.7096 10.7255 18.8478 10.8497 19.0131 10.9273L21.2654 12.0386C21.9254 12.3682 22.4538 12.9045 22.7654 13.5659C23.0037 14.0584 23.1114 14.6024 23.0784 15.147C23.0454 15.6916 22.8727 16.219 22.5765 16.6801C22.2803 17.1411 21.8703 17.5207 21.3848 17.7833C20.8992 18.0459 20.354 18.183 19.8 18.1818H19.4631C18.5908 18.1818 17.7531 17.8386 17.1346 17.2318C16.8262 16.9318 16.5808 16.5748 16.4126 16.1813C16.2443 15.7879 16.1564 15.3656 16.1538 14.9386C16.152 14.6287 16.2704 14.3298 16.4849 14.1029C16.6993 13.8761 16.9937 13.7385 17.3077 13.7182C17.4549 13.7085 17.6026 13.7292 17.7413 13.7789C17.8799 13.8286 18.0066 13.9062 18.1131 14.0068C18.2207 14.1047 18.307 14.223 18.3669 14.3547C18.4268 14.4863 18.459 14.6285 18.4615 14.7727C18.4456 14.912 18.4589 15.0529 18.5005 15.1869C18.5422 15.3209 18.6114 15.445 18.7038 15.5516C18.7962 15.6581 18.9098 15.7448 19.0376 15.8063C19.1655 15.8678 19.3048 15.9028 19.4469 15.9091H19.7838C19.9582 15.908 20.1292 15.8613 20.2792 15.7739C20.4293 15.6865 20.5531 15.5614 20.6381 15.4114C20.723 15.2614 20.766 15.0919 20.7627 14.9202C20.7594 14.7485 20.7099 14.5808 20.6192 14.4341C20.5258 14.279 20.3876 14.1548 20.2223 14.0773L17.97 12.9591C17.31 12.6312 16.7815 12.0937 16.4699 11.4334C16.1584 10.7732 16.082 10.0287 16.2531 9.32045C16.4248 8.6118 16.8328 7.98027 17.4117 7.52669C17.9906 7.07312 18.7072 6.82367 19.4469 6.81818H19.7838C20.6567 6.81998 21.4932 7.16225 22.1104 7.77008C22.7276 8.3779 23.0751 9.20177 23.0769 10.0614C23.0816 10.3721 22.9641 10.6726 22.7491 10.9C22.5341 11.1275 22.2381 11.2643 21.9231 11.2818C21.7758 11.2915 21.6282 11.2708 21.4895 11.2211C21.3508 11.1714 21.2242 11.0938 21.1177 10.9932C21.0101 10.8953 20.9238 10.777 20.8639 10.6453C20.804 10.5137 20.7718 10.3715 20.7692 10.2273V10.0614C20.7673 9.80568 20.6638 9.5609 20.4808 9.37955Z" fill="white"/>
</svg>
